<svg xmlns="http://www.w3.org/2000/svg" xmlns:xlink="http://www.w3.org/1999/xlink" zoomAndPan="magnify" preserveAspectRatio="xMidYMid meet" version="1.0" viewBox="69.2 87.83 208.75 59.53"><defs><g/></defs><path stroke-linecap="butt" transform="matrix(0.7475, 0, 0, 0.7475, 75.200679, 136.875561)" fill="none" stroke-linejoin="miter" d="M -0.001953 5.998414 L 153.002867 5.998414 " stroke="#000000" stroke-width="12" stroke-opacity="1" stroke-miterlimit="4"/><g fill="#000000" fill-opacity="1"><g transform="translate(75.200679, 123.969659)"><g><path d="M 36.25 0 L 36.140625 -19.15625 L 26.859375 -3.5625 L 22.3125 -3.5625 L 13.0625 -18.640625 L 13.0625 0 L 3.609375 0 L 3.609375 -36.140625 L 12.03125 -36.140625 L 24.734375 -15.28125 L 37.125 -36.140625 L 45.546875 -36.140625 L 45.65625 0 Z M 36.25 0 "/></g></g></g><g fill="#000000" fill-opacity="1"><g transform="translate(128.945945, 123.969659)"><g><path d="M 32.640625 -7.90625 L 32.640625 0 L 3.609375 0 L 3.609375 -36.140625 L 31.96875 -36.140625 L 31.96875 -28.25 L 13.734375 -28.25 L 13.734375 -22.15625 L 29.796875 -22.15625 L 29.796875 -14.515625 L 13.734375 -14.515625 L 13.734375 -7.90625 Z M 32.640625 -7.90625 "/></g></g></g><g fill="#000000" fill-opacity="1"><g transform="translate(168.132151, 123.969659)"><g><path d="M 19.421875 -9.609375 L 13.84375 -9.609375 L 13.84375 0 L 3.609375 0 L 3.609375 -36.140625 L 20.140625 -36.140625 C 23.410156 -36.140625 26.25 -35.597656 28.65625 -34.515625 C 31.070312 -33.429688 32.929688 -31.882812 34.234375 -29.875 C 35.546875 -27.863281 36.203125 -25.5 36.203125 -22.78125 C 36.203125 -20.15625 35.585938 -17.867188 34.359375 -15.921875 C 33.140625 -13.984375 31.394531 -12.460938 29.125 -11.359375 L 36.921875 0 L 25.96875 0 Z M 25.875 -22.78125 C 25.875 -24.457031 25.335938 -25.757812 24.265625 -26.6875 C 23.203125 -27.625 21.617188 -28.09375 19.515625 -28.09375 L 13.84375 -28.09375 L 13.84375 -17.5 L 19.515625 -17.5 C 21.617188 -17.5 23.203125 -17.957031 24.265625 -18.875 C 25.335938 -19.789062 25.875 -21.09375 25.875 -22.78125 Z M 25.875 -22.78125 "/></g></g></g><g fill="#000000" fill-opacity="1"><g transform="translate(210.829046, 123.969659)"><g><path d="M 3.609375 -36.140625 L 13.84375 -36.140625 L 13.84375 0 L 3.609375 0 Z M 3.609375 -36.140625 "/></g></g></g><g fill="#000000" fill-opacity="1"><g transform="translate(232.82315, 123.969659)"><g><path d="M 11.3125 -28.046875 L 0.203125 -28.046875 L 0.203125 -36.140625 L 32.578125 -36.140625 L 32.578125 -28.046875 L 21.53125 -28.046875 L 21.53125 0 L 11.3125 0 Z M 11.3125 -28.046875 "/></g></g></g><g fill="#000000" fill-opacity="1"><g transform="translate(195.476266, 144.238747)"><g><path d="M 4.296875 -8 C 5.316406 -8 6.117188 -7.753906 6.703125 -7.265625 C 7.285156 -6.785156 7.578125 -6.117188 7.578125 -5.265625 C 7.578125 -4.410156 7.285156 -3.738281 6.703125 -3.25 C 6.117188 -2.769531 5.316406 -2.53125 4.296875 -2.53125 L 2.15625 -2.53125 L 2.15625 0 L 1.296875 0 L 1.296875 -8 Z M 4.28125 -3.265625 C 5.070312 -3.265625 5.675781 -3.4375 6.09375 -3.78125 C 6.507812 -4.132812 6.71875 -4.628906 6.71875 -5.265625 C 6.71875 -5.910156 6.507812 -6.40625 6.09375 -6.75 C 5.675781 -7.101562 5.070312 -7.28125 4.28125 -7.28125 L 2.15625 -7.28125 L 2.15625 -3.265625 Z M 4.28125 -3.265625 "/></g></g></g><g fill="#000000" fill-opacity="1"><g transform="translate(206.512824, 144.238747)"><g><path d="M 1.296875 -8 L 2.15625 -8 L 2.15625 0 L 1.296875 0 Z M 1.296875 -8 "/></g></g></g><g fill="#000000" fill-opacity="1"><g transform="translate(212.797373, 144.238747)"><g><path d="M 8 -8 L 8 0 L 7.296875 0 L 2.15625 -6.5 L 2.15625 0 L 1.296875 0 L 1.296875 -8 L 2 -8 L 7.15625 -1.515625 L 7.15625 -8 Z M 8 -8 "/></g></g></g><g fill="#000000" fill-opacity="1"><g transform="translate(224.919139, 144.238747)"><g><path d="M 6.96875 -0.734375 L 6.96875 0 L 1.296875 0 L 1.296875 -8 L 6.796875 -8 L 6.796875 -7.28125 L 2.15625 -7.28125 L 2.15625 -4.421875 L 6.296875 -4.421875 L 6.296875 -3.703125 L 2.15625 -3.703125 L 2.15625 -0.734375 Z M 6.96875 -0.734375 "/></g></g></g><g fill="#000000" fill-opacity="1"><g transform="translate(235.395966, 144.238747)"><g><path d="M 4.78125 0.0625 C 3.988281 0.0625 3.273438 -0.109375 2.640625 -0.453125 C 2.003906 -0.804688 1.503906 -1.289062 1.140625 -1.90625 C 0.773438 -2.53125 0.59375 -3.226562 0.59375 -4 C 0.59375 -4.769531 0.773438 -5.460938 1.140625 -6.078125 C 1.503906 -6.703125 2.003906 -7.191406 2.640625 -7.546875 C 3.285156 -7.898438 4.003906 -8.078125 4.796875 -8.078125 C 5.390625 -8.078125 5.9375 -7.976562 6.4375 -7.78125 C 6.9375 -7.582031 7.363281 -7.289062 7.71875 -6.90625 L 7.1875 -6.375 C 6.5625 -7 5.769531 -7.3125 4.8125 -7.3125 C 4.175781 -7.3125 3.597656 -7.164062 3.078125 -6.875 C 2.566406 -6.59375 2.160156 -6.195312 1.859375 -5.6875 C 1.566406 -5.1875 1.421875 -4.625 1.421875 -4 C 1.421875 -3.375 1.566406 -2.8125 1.859375 -2.3125 C 2.160156 -1.8125 2.566406 -1.414062 3.078125 -1.125 C 3.597656 -0.832031 4.175781 -0.6875 4.8125 -0.6875 C 5.769531 -0.6875 6.5625 -1.003906 7.1875 -1.640625 L 7.71875 -1.109375 C 7.363281 -0.722656 6.929688 -0.429688 6.421875 -0.234375 C 5.921875 -0.0351562 5.375 0.0625 4.78125 0.0625 Z M 4.78125 0.0625 "/></g></g></g><g fill="#000000" fill-opacity="1"><g transform="translate(246.443956, 144.238747)"><g><path d="M 4.796875 0.0625 C 4.003906 0.0625 3.285156 -0.113281 2.640625 -0.46875 C 2.003906 -0.820312 1.503906 -1.304688 1.140625 -1.921875 C 0.773438 -2.535156 0.59375 -3.226562 0.59375 -4 C 0.59375 -4.769531 0.773438 -5.460938 1.140625 -6.078125 C 1.503906 -6.703125 2.003906 -7.191406 2.640625 -7.546875 C 3.285156 -7.898438 4.003906 -8.078125 4.796875 -8.078125 C 5.597656 -8.078125 6.316406 -7.898438 6.953125 -7.546875 C 7.585938 -7.191406 8.085938 -6.703125 8.453125 -6.078125 C 8.816406 -5.460938 9 -4.769531 9 -4 C 9 -3.226562 8.816406 -2.53125 8.453125 -1.90625 C 8.085938 -1.289062 7.585938 -0.804688 6.953125 -0.453125 C 6.316406 -0.109375 5.597656 0.0625 4.796875 0.0625 Z M 4.796875 -0.6875 C 5.429688 -0.6875 6.003906 -0.828125 6.515625 -1.109375 C 7.023438 -1.398438 7.425781 -1.796875 7.71875 -2.296875 C 8.007812 -2.804688 8.15625 -3.375 8.15625 -4 C 8.15625 -4.625 8.007812 -5.191406 7.71875 -5.703125 C 7.425781 -6.210938 7.023438 -6.609375 6.515625 -6.890625 C 6.003906 -7.171875 5.429688 -7.3125 4.796875 -7.3125 C 4.171875 -7.3125 3.597656 -7.171875 3.078125 -6.890625 C 2.566406 -6.609375 2.160156 -6.210938 1.859375 -5.703125 C 1.566406 -5.191406 1.421875 -4.625 1.421875 -4 C 1.421875 -3.375 1.566406 -2.804688 1.859375 -2.296875 C 2.160156 -1.796875 2.566406 -1.398438 3.078125 -1.109375 C 3.597656 -0.828125 4.171875 -0.6875 4.796875 -0.6875 Z M 4.796875 -0.6875 "/></g></g></g><g fill="#000000" fill-opacity="1"><g transform="translate(258.86272, 144.238747)"><g><path d="M 8 -8 L 8 0 L 7.296875 0 L 2.15625 -6.5 L 2.15625 0 L 1.296875 0 L 1.296875 -8 L 2 -8 L 7.15625 -1.515625 L 7.15625 -8 Z M 8 -8 "/></g></g></g><g fill="#000000" fill-opacity="1"><g transform="translate(270.984486, 144.238747)"><g><path d="M 6.96875 -0.734375 L 6.96875 0 L 1.296875 0 L 1.296875 -8 L 6.796875 -8 L 6.796875 -7.28125 L 2.15625 -7.28125 L 2.15625 -4.421875 L 6.296875 -4.421875 L 6.296875 -3.703125 L 2.15625 -3.703125 L 2.15625 -0.734375 Z M 6.96875 -0.734375 "/></g></g></g></svg>